<?xml version="1.0" encoding="UTF-8"?>
<svg id="Layer_1" data-name="Layer 1" xmlns="http://www.w3.org/2000/svg" viewBox="0 0 622.44 78.54">
  <defs>
    <style>
      .cls-1 {
        fill: #050821;
      }
    </style>
  </defs>
  <path class="cls-1" d="M23.89,28.14l1.3-8.15c.21-1.28,.91-4.06,2.31-4.06,.57,0,.9,.45,.9,.93,0,.41-.23,.83-.74,1.02,.15,.67,.78,.96,1.36,.96,.86,0,1.78-.61,1.78-1.78,0-.78-.57-1.63-1.91-1.63h0c-1.59,0-4.3,1.55-6.17,3.94-2.06,2.33-3.88,4.81-5.51,7.44l-2.41-8.39c.59-.1,1.32-.54,1.32-1.42,0-.63-.5-.94-1.01-.94s-1.05,.33-1.05,.92c0,.19,.08,.44,.31,.59,.1-.1,.22-.15,.35-.15,.25,0,.42,.17,.42,.41,0,.27-.22,.51-.68,.51-1.25,0-2.4-.49-3.55-.99-1.11-.48-2.23-.97-3.43-.97-2.1,0-3.58,1.42-3.58,3.39,0,1.76,1.42,2.62,2.77,2.62,1.24,0,2.47-.75,2.47-2.24,0-.61-.27-1.26-1.07-1.65-.29,.52-.82,.77-1.34,.77-1.8,0-2.05-2.77,.75-2.77,2.39,0,4.46,1.95,6.98,1.95v.02c-1.15,.06-3.08-.04-3.94-.29,.51,.7,.51,1.99,.33,3.08l-.99,6.03c-.62,3.81-2.5,5.89-5.38,5.89-2.47,0-3.69-1.59-3.69-3.75,0-2.01,1.21-3.52,3.02-3.52,1.13,0,1.51,.69,1.51,1.34,0,.8-.63,1.68-1.78,1.7-.34,1.17,.42,2.26,1.74,2.26s2.43-.98,2.43-2.37c0-1.91-1.99-3.04-3.77-3.04-2.14,0-3.94,1.51-3.94,3.67,0,2.51,1.88,3.83,4.48,3.83,2.95,0,4.86-2.14,5.49-5.99l1.15-7.03,3.45,11.45c2.1-4.13,4.53-7.93,7.47-11.42-.64,1.02-1.11,2.17-1.29,3.38l-.65,4.44c-.32,2.14-.68,3.36-2.15,3.36v.09s7.28,0,7.28,0v-.09c-1.88,0-1.7-1.12-1.34-3.36Z"/>
  <path class="cls-1" d="M41.36,16.47c-.92,0-2.26,.36-2.93,.77v.05c.63-.13,.92-.04,.8,.71l-1.74,10.64c-.4,2.43,.94,3.08,2.56,3.08,.46,0,.92-.04,1.42-.13v-.05c-.84-.33-.84-1.69-.43-4.1l1.58-9.26c.22-1.29-.17-1.7-1.26-1.7Z"/>
  <path class="cls-1" d="M46.83,16.47c-.92,0-2.26,.36-2.93,.77v.05c.63-.13,.92-.04,.8,.71l-1.74,10.64c-.4,2.43,.94,3.08,2.56,3.08,.46,0,.92-.04,1.42-.13v-.05c-.84-.33-.84-1.69-.43-4.1l1.58-9.26c.22-1.29-.17-1.7-1.26-1.7Z"/>
  <path class="cls-1" d="M57.05,21.37c-.46,0-1,.06-1.66,.15v.05c.65,.33,.11,2.73-.21,4.05-.71,2.85-1.84,5.17-2.89,5.17-.37,0-.59-.28-.58-.83,.03-1.14,1.15-6.47,1.15-7.45,0-.81-.44-1.09-1.33-1.09s-2.26,.36-2.93,.77v.05c.63-.13,.92-.04,.8,.71l-.9,5.47c-.21,1.32-.22,3.33,2.17,3.33,1.72,0,3.35-1.17,4.63-6.07h.06l-.63,2.97c-.52,2.4,.91,3.08,2.52,3.08,.46,0,.92-.04,1.42-.13v-.05c-.84-.33-.69-2.48-.38-4.12l.55-3.04c.43-2.37-.27-3-1.78-3Z"/>
  <path class="cls-1" d="M66.4,23.46c0,.78,.67,1.19,1.34,1.19,.78,0,1.44-.57,1.44-1.42,0-1.45-1.93-1.86-3.57-1.86-2.52,0-5.33,1.19-5.33,3.54,0,3.27,5.97,2.85,5.97,5.2,0,1.26-1.88,1.51-2.8,1.51-1.4,0-1.79-.57-1.79-1.11s.34-1.05,.82-1.19c.04-.86-.71-1.28-1.38-1.28-.96,0-1.65,.78-1.65,1.59,0,1.55,2.12,2.1,3.95,2.1,2.53,0,5.69-1.12,5.69-3.75,0-3.29-5.87-2.58-5.87-4.99,0-1.04,1.29-1.51,2.35-1.51,.96,0,1.61,.38,1.61,1,0,.46-.36,.86-.78,.98Z"/>
  <path class="cls-1" d="M79.27,29.46c-.38-1.3-.8-2.74-2.47-2.98-.63-.1-1.44-.08-2.38,.03v-.02c3.77-.61,6.13-1.26,6.13-3.32,0-.86-.57-1.8-2.18-1.8-1.74,0-3.53,1.19-4.81,6.07h-.06l1.67-9.26c.23-1.29-.16-1.7-1.26-1.7-.92,0-2.26,.36-2.93,.77v.05c.63-.13,.92-.04,.8,.71l-1.76,10.73c-.38,2.35,.27,3,1.78,3,.46,0,1-.06,1.66-.15v-.05c-.65-.33-.11-2.73,.21-4.05,.71-2.85,1.96-5.17,3.01-5.17,.34,0,.53,.26,.53,.77,0,1.63-1.72,2.97-3.02,3.41v.05c.77,0,.92,1.04,1.19,2.55,.4,2.26,1.38,2.76,2.95,2.76,.75,0,1.53-.13,2.24-.27v-.05c-.75-.19-.96-.91-1.3-2.08Z"/>
  <path class="cls-1" d="M36.21,29.71c.59-1,.77-2.27,.42-3.64-.84-3.33-4.19-5.39-7.39-4.58-2.45,.62-3.74,2.9-3.06,5.55,.21,.84,.6,1.6,1.1,2.26-.85,.15-1.1,.59-1.17,1.28-.04,.37,0,.76,.02,1.12h.02c.13-.36,.5-.43,1.09-.54,.09-.02,.19-.04,.28-.06-.06,.2-.08,.42-.07,.68,.02,.37,.11,.75,.2,1.1h.02c.07-.38,.42-.5,.99-.71,.26-.09,.53-.19,.76-.33-.19,.42-.09,.8,.17,1.24,.19,.32,.45,.62,.69,.89h.02c-.11-.38,.14-.65,.55-1.1,.23-.25,.47-.51,.61-.8,.09,.42,.41,.77,.71,1.09,.41,.44,.66,.72,.55,1.08h.02c.24-.26,.5-.56,.69-.87,.26-.43,.36-.82,.17-1.24,.23,.14,.5,.24,.76,.33,.57,.21,.92,.33,.99,.71h.02c.09-.35,.18-.73,.2-1.1,.02-.26,0-.48-.07-.68,.09,.02,.19,.04,.28,.06,.59,.11,.96,.18,1.09,.54h.02c.03-.36,.06-.75,.02-1.12-.05-.55-.23-.94-.73-1.15Zm.31-3.63c.23,.9-.66,1.37-1.86,1.67-.36,.09-.82,.19-1.35,.28,.33-.4,.54-.91,.54-1.47,0-.72-.34-1.35-.85-1.78,1.73,0,3.26,.31,3.51,1.3Zm-10.23,.93c-.22-.86,.64-1.35,1.82-1.65,.4-.1,1.01-.22,1.71-.33-.36,.41-.58,.93-.58,1.52,0,.73,.34,1.37,.87,1.79-1.85,.03-3.54-.26-3.81-1.34Z"/>
</svg>